<svg width="17" height="17" viewBox="0 0 17 17" fill="none" xmlns="http://www.w3.org/2000/svg">
<g clip-path="url(#clip0)">
<path d="M8.31055 1.21094C3.89055 1.21094 0.310547 4.73094 0.310547 9.07227C0.310547 12.5463 2.60255 15.4923 5.78055 16.5309C6.18055 16.6049 6.32721 16.3616 6.32721 16.1529C6.32721 15.9663 6.32055 15.4716 6.31721 14.8163C4.09188 15.2903 3.62255 13.7616 3.62255 13.7616C3.25855 12.8543 2.73255 12.6116 2.73255 12.6116C2.00788 12.1243 2.78855 12.1343 2.78855 12.1343C3.59188 12.1889 4.01388 12.9443 4.01388 12.9443C4.72721 14.1463 5.88655 13.7989 6.34388 13.5983C6.41588 13.0896 6.62188 12.7436 6.85055 12.5469C5.07388 12.3503 3.20655 11.6743 3.20655 8.66227C3.20655 7.80427 3.51655 7.10294 4.02988 6.55294C3.93988 6.35427 3.66988 5.55494 4.09988 4.47227C4.09988 4.47227 4.76988 4.2616 6.29988 5.27827C6.93988 5.1036 7.61988 5.01694 8.29988 5.01294C8.97988 5.01694 9.65988 5.1036 10.2999 5.27827C11.8199 4.2616 12.4899 4.47227 12.4899 4.47227C12.9199 5.55494 12.6499 6.35427 12.5699 6.55294C13.0799 7.10294 13.3899 7.80427 13.3899 8.66227C13.3899 11.6823 11.5199 12.3469 9.73988 12.5403C10.0199 12.7763 10.2799 13.2583 10.2799 13.9949C10.2799 15.0469 10.2699 15.8923 10.2699 16.1476C10.2699 16.3536 10.4099 16.5996 10.8199 16.5209C14.0205 15.4889 16.3105 12.5409 16.3105 9.07227C16.3105 4.73094 12.7285 1.21094 8.31055 1.21094Z" fill="#212121"/>
</g>
<defs>
<clipPath id="clip0">
<rect width="16" height="16" fill="white" transform="translate(0.310547 0.877563)"/>
</clipPath>
</defs>
</svg>
