<svg width="16" height="17" viewBox="0 0 16 17" fill="none" xmlns="http://www.w3.org/2000/svg">
<g clip-path="url(#clip0)">
<path d="M10.3845 4.79663H5.61577C4.85462 4.79663 4.23535 5.4159 4.23535 6.17705V10.9458C4.23535 11.7069 4.85462 12.3264 5.61577 12.3264H10.3845C11.1457 12.3264 11.7651 11.7071 11.7651 10.9458V6.17705C11.7651 5.4159 11.1458 4.79663 10.3845 4.79663ZM8.00014 11.0403C6.63344 11.0403 5.52148 9.9283 5.52148 8.56142C5.52148 7.19472 6.63344 6.08276 8.00014 6.08276C9.36702 6.08276 10.479 7.19472 10.479 8.56142C10.479 9.92812 9.36684 11.0403 8.00014 11.0403ZM10.5587 6.59525C10.2351 6.59525 9.97202 6.33214 9.97202 6.00878C9.97202 5.68542 10.2351 5.42231 10.5587 5.42231C10.882 5.42231 11.1451 5.68542 11.1451 6.00878C11.1451 6.33214 10.882 6.59525 10.5587 6.59525Z" fill="#E53C5F"/>
<path d="M7.99976 7.13025C7.2108 7.13025 6.56836 7.77233 6.56836 8.5613C6.56836 9.35062 7.2108 9.99288 7.99976 9.99288C8.78909 9.99288 9.43099 9.35062 9.43099 8.5613C9.43099 7.77251 8.78891 7.13025 7.99976 7.13025Z" fill="#E53C5F"/>
<path d="M8 0.539917C3.5819 0.539917 0 4.12181 0 8.53992C0 12.958 3.5819 16.5399 8 16.5399C12.4181 16.5399 16 12.958 16 8.53992C16 4.12181 12.4181 0.539917 8 0.539917ZM12.8122 10.9459C12.8122 12.2847 11.7233 13.3737 10.3844 13.3737H5.61563C4.27692 13.3737 3.18777 12.2847 3.18777 10.9459V6.17712C3.18777 4.83841 4.27692 3.74926 5.61563 3.74926H10.3844C11.7233 3.74926 12.8122 4.83841 12.8122 6.17712V10.9459Z" fill="#E53C5F"/>
</g>
<defs>
<clipPath id="clip0">
<rect width="16" height="16" fill="white" transform="translate(0 0.539917)"/>
</clipPath>
</defs>
</svg>
