<svg width="16" height="17" viewBox="0 0 16 17" fill="none" xmlns="http://www.w3.org/2000/svg">
<g clip-path="url(#clip0)">
<path d="M8 16.5389C12.4183 16.5389 16 12.9572 16 8.53894C16 4.12066 12.4183 0.53894 8 0.53894C3.58172 0.53894 0 4.12066 0 8.53894C0 12.9572 3.58172 16.5389 8 16.5389Z" fill="#007AB9"/>
<path d="M12.7802 9.18356V12.4818H10.8679V9.4046C10.8679 8.63195 10.5919 8.1043 9.8995 8.1043C9.37114 8.1043 9.05726 8.45954 8.91864 8.80351C8.8683 8.92643 8.85532 9.09714 8.85532 9.26955V12.4816H6.94296C6.94296 12.4816 6.96863 7.26991 6.94296 6.73042H8.85547V7.54542C8.85162 7.55184 8.8462 7.55812 8.84278 7.56425H8.85547V7.54542C9.10959 7.15439 9.5628 6.59537 10.5789 6.59537C11.837 6.59537 12.7802 7.41736 12.7802 9.18356ZM4.94246 3.95813C4.28832 3.95813 3.86035 4.38752 3.86035 4.95168C3.86035 5.50385 4.27591 5.94565 4.91736 5.94565H4.92977C5.59674 5.94565 6.01144 5.50385 6.01144 4.95168C5.99875 4.38752 5.59674 3.95813 4.94246 3.95813ZM3.97401 12.4818H5.88566V6.73042H3.97401V12.4818Z" fill="#F1F2F2"/>
</g>
<defs>
<clipPath id="clip0">
<rect width="16" height="16" fill="white" transform="translate(0 0.539917)"/>
</clipPath>
</defs>
</svg>
