<svg width="16" height="17" viewBox="0 0 16 17" fill="none" xmlns="http://www.w3.org/2000/svg">
<g clip-path="url(#clip0)">
<path d="M7.99986 16.54C12.4181 16.54 15.9997 12.9583 15.9997 8.54014C15.9997 4.12194 12.4181 0.540283 7.99986 0.540283C3.58166 0.540283 0 4.12194 0 8.54014C0 12.9583 3.58166 16.54 7.99986 16.54Z" fill="#CB2027"/>
<path d="M8.64591 11.2528C8.04112 11.2061 7.787 10.9062 7.31269 10.6183C7.05201 11.986 6.73343 13.2971 5.78981 13.982C5.49819 11.9148 6.21734 10.3621 6.55132 8.71405C5.98204 7.75574 6.61977 5.82687 7.82051 6.30217C9.29833 6.88657 6.54106 9.86544 8.39207 10.2375C10.3245 10.626 11.1134 6.88443 9.91495 5.66744C8.18344 3.9104 4.87486 5.62751 5.28171 8.14277C5.38082 8.75769 6.01627 8.94436 5.53555 9.79286C4.42736 9.54743 4.09681 8.67341 4.1393 7.50818C4.20789 5.60084 5.85313 4.26534 7.50336 4.08053C9.59038 3.84694 11.5492 4.84689 11.8196 6.80999C12.1238 9.02564 10.8774 11.4251 8.64591 11.2528Z" fill="#F1F2F2"/>
</g>
<defs>
<clipPath id="clip0">
<rect width="16" height="16" fill="white" transform="translate(0 0.539917)"/>
</clipPath>
</defs>
</svg>
