<svg width="16" height="17" viewBox="0 0 16 17" fill="none" xmlns="http://www.w3.org/2000/svg">
<g clip-path="url(#clip0)">
<path d="M8 0.539917C3.5824 0.539917 0 4.12231 0 8.53992C0 12.9575 3.5824 16.5399 8 16.5399C12.4176 16.5399 16 12.9575 16 8.53992C16 4.12231 12.4176 0.539917 8 0.539917ZM12.7911 11.1229C12.7335 11.2572 12.4745 11.448 11.5685 11.5879C11.4943 11.5992 11.4656 11.6958 11.4214 11.8981C11.4053 11.9717 11.389 12.0441 11.3667 12.1201C11.3474 12.186 11.3063 12.2169 11.2371 12.2169H11.2258C11.1777 12.2169 11.1096 12.2083 11.0231 12.1913C10.8696 12.1614 10.6976 12.1338 10.4788 12.1338C10.351 12.1338 10.2188 12.1448 10.0858 12.1667C9.81396 12.2122 9.58313 12.375 9.33875 12.5479C8.98364 12.7991 8.61707 13.0582 8.04565 13.0582C8.02075 13.0582 7.99646 13.0574 7.97192 13.0563C7.9563 13.0576 7.94006 13.0582 7.92383 13.0582C7.35266 13.0582 6.98608 12.7992 6.63159 12.5483C6.38684 12.3755 6.15576 12.2122 5.88354 12.1667C5.75073 12.1448 5.61853 12.1338 5.49097 12.1338C5.26062 12.1338 5.07922 12.1693 4.94653 12.1952C4.86609 12.2109 4.79651 12.2245 4.74365 12.2245C4.68848 12.2245 4.62878 12.2125 4.60278 12.1238C4.5802 12.0468 4.56396 11.9724 4.5481 11.9001C4.50757 11.7148 4.47888 11.6008 4.40125 11.5889C3.49536 11.449 3.23596 11.2581 3.17822 11.1227C3.17017 11.1034 3.16528 11.0839 3.16431 11.0648C3.16138 11.0127 3.19812 10.9667 3.24963 10.9584C4.64209 10.7291 5.2666 9.30566 5.2926 9.24524C5.29321 9.24377 5.29395 9.24207 5.2948 9.24048C5.38 9.06775 5.39661 8.91772 5.3446 8.7948C5.24902 8.5697 4.93726 8.4707 4.73096 8.40527C4.68054 8.38916 4.63269 8.37415 4.59485 8.35913C4.18311 8.19641 4.14893 8.02942 4.16516 7.94434C4.19275 7.79919 4.3866 7.698 4.54346 7.698C4.5863 7.698 4.62415 7.70569 4.65601 7.72058C4.84131 7.80725 5.00818 7.85132 5.15234 7.85132C5.35132 7.85132 5.43823 7.7677 5.44885 7.75671C5.4436 7.66248 5.43738 7.56396 5.43103 7.46228C5.38953 6.80408 5.33801 5.98584 5.54651 5.51892C6.17078 4.11926 7.49451 4.01038 7.8855 4.01038C7.89551 4.01038 8.05688 4.00867 8.05688 4.00867H8.07996C8.47168 4.00867 9.79858 4.11755 10.4231 5.51807C10.6315 5.98523 10.58 6.80408 10.5385 7.46191L10.5366 7.4906C10.5309 7.58215 10.5253 7.67114 10.5206 7.75647C10.5306 7.76672 10.6106 7.84351 10.7909 7.85046H10.791C10.9283 7.84521 11.0858 7.80139 11.2588 7.72058C11.3093 7.69678 11.3657 7.69177 11.4039 7.69177C11.4626 7.69177 11.5219 7.70325 11.571 7.72363L11.5742 7.72498C11.714 7.77454 11.8057 7.87244 11.8076 7.97498C11.8094 8.07141 11.7357 8.21643 11.3746 8.35913C11.3372 8.3739 11.2893 8.38904 11.2385 8.40515C11.032 8.47058 10.7205 8.5697 10.6249 8.79468C10.5728 8.91772 10.5894 9.0675 10.6747 9.24023C10.6754 9.24194 10.6763 9.24353 10.677 9.24524C10.7029 9.30566 11.3267 10.7286 12.72 10.9583C12.7714 10.9667 12.8082 11.0127 12.8053 11.0646C12.8042 11.0841 12.7994 11.1038 12.7911 11.1229Z" fill="#FFF900"/>
</g>
<defs>
<clipPath id="clip0">
<rect width="16" height="16" fill="white" transform="translate(0 0.539917)"/>
</clipPath>
</defs>
</svg>
