<svg width="16" height="17" viewBox="0 0 16 17" fill="none" xmlns="http://www.w3.org/2000/svg">
<g clip-path="url(#clip0)">
<path d="M8.0009 16.5398C12.4191 16.5398 16.0008 12.9581 16.0008 8.53985C16.0008 4.12161 12.4191 0.539917 8.0009 0.539917C3.58267 0.539917 0.000976562 4.12161 0.000976562 8.53985C0.000976562 12.9581 3.58267 16.5398 8.0009 16.5398Z" fill="#395976"/>
<path d="M8.29673 5.96357V3.81506H6.90989C6.87865 3.8935 6.86325 3.98919 6.86325 4.08473C6.84871 4.13136 6.83159 4.16516 6.83159 4.21165C6.68942 5.00839 6.27557 5.56413 5.57466 5.86774C5.3666 5.96371 5.17565 5.97826 4.96973 5.96371V7.69581H5.98879C6.00533 10.1332 6.00533 11.3897 6.00533 11.4536V11.5981C6.13325 12.6615 6.68927 13.2988 7.67625 13.5384C8.07341 13.6485 8.50251 13.6975 8.93318 13.6975C9.48935 13.6804 10.0307 13.585 10.5722 13.4113V11.3729C10.2559 11.4685 9.96737 11.5489 9.71281 11.6276C9.21997 11.7716 8.80612 11.6762 8.47028 11.3579C8.43863 11.3093 8.39171 11.2453 8.37517 11.1815C8.32825 10.9271 8.29844 10.657 8.29844 10.4028V7.69567H10.5084V5.96357H8.29673Z" fill="#F1F2F2"/>
</g>
<defs>
<clipPath id="clip0">
<rect width="16" height="16" fill="white" transform="translate(0 0.539917)"/>
</clipPath>
</defs>
</svg>
