<svg width="16" height="17" viewBox="0 0 16 17" fill="none" xmlns="http://www.w3.org/2000/svg">
<g clip-path="url(#clip0)">
<path d="M8.0009 16.5398C12.4191 16.5398 16.0008 12.9581 16.0008 8.53985C16.0008 4.12161 12.4191 0.539917 8.0009 0.539917C3.58267 0.539917 0.000976562 4.12161 0.000976562 8.53985C0.000976562 12.9581 3.58267 16.5398 8.0009 16.5398Z" fill="#55ACEE"/>
<path d="M12.9005 6.28929C12.5577 6.44131 12.1889 6.54412 11.8022 6.59004C12.1971 6.35346 12.5001 5.97912 12.6431 5.53233C12.2736 5.75152 11.8642 5.91052 11.4288 5.99623C11.08 5.62474 10.583 5.39258 10.0327 5.39258C8.97687 5.39258 8.12052 6.24893 8.12052 7.30479C8.12052 7.45467 8.13749 7.60055 8.17029 7.74059C6.58109 7.66087 5.17199 6.89964 4.22879 5.74239C4.06423 6.02475 3.96982 6.35346 3.96982 6.70384C3.96982 7.36711 4.30766 7.95265 4.82047 8.29547C4.50716 8.28563 4.21211 8.19964 3.95442 8.05604C3.95428 8.06416 3.95428 8.07229 3.95428 8.08028C3.95428 9.00679 4.61369 9.77958 5.48829 9.95512C5.328 9.99905 5.15873 10.0223 4.98461 10.0223C4.86111 10.0223 4.74146 10.0105 4.62481 9.98821C4.8681 10.7477 5.57414 11.3006 6.4111 11.3162C5.75654 11.8291 4.93213 12.1347 4.03599 12.1347C3.88198 12.1347 3.72939 12.1257 3.58008 12.1079C4.42588 12.6507 5.43125 12.9671 6.51107 12.9671C10.0283 12.9671 11.9518 10.0534 11.9518 7.52625C11.9518 7.4434 11.9499 7.36083 11.9462 7.27897C12.3201 7.00945 12.6443 6.67276 12.9005 6.28929Z" fill="#F1F2F2"/>
</g>
<defs>
<clipPath id="clip0">
<rect width="16" height="16" fill="white" transform="translate(0 0.539917)"/>
</clipPath>
</defs>
</svg>
