<svg width="16" height="17" viewBox="0 0 16 17" fill="none" xmlns="http://www.w3.org/2000/svg">
<g clip-path="url(#clip0)">
<path d="M8 16.5399C12.4183 16.5399 16 12.9582 16 8.53992C16 4.12164 12.4183 0.539917 8 0.539917C3.58172 0.539917 0 4.12164 0 8.53992C0 12.9582 3.58172 16.5399 8 16.5399Z" fill="#4D76A1"/>
<path fill-rule="evenodd" clip-rule="evenodd" d="M7.69809 12.0486H8.326C8.326 12.0486 8.51566 12.0277 8.61249 11.9234C8.70162 11.8275 8.69877 11.6476 8.69877 11.6476C8.69877 11.6476 8.68651 10.805 9.07754 10.681C9.46301 10.5587 9.958 11.4953 10.4827 11.8553C10.8794 12.1279 11.1809 12.0681 11.1809 12.0681L12.5837 12.0486C12.5837 12.0486 13.3175 12.0034 12.9696 11.4264C12.9411 11.3792 12.7669 10.9995 11.9266 10.2195C11.0469 9.40305 11.1647 9.53511 12.2243 8.12287C12.8696 7.2628 13.1276 6.73772 13.047 6.51283C12.9702 6.29863 12.4956 6.35525 12.4956 6.35525L10.916 6.36509C10.916 6.36509 10.799 6.34911 10.7121 6.40102C10.6273 6.45193 10.5726 6.57058 10.5726 6.57058C10.5726 6.57058 10.3226 7.23613 9.98923 7.80214C9.28589 8.99648 9.00467 9.05951 8.88972 8.98536C8.62233 8.81252 8.68908 8.291 8.68908 7.92051C8.68908 6.7631 8.86462 6.28052 8.34724 6.15559C8.17555 6.1141 8.04919 6.08672 7.61011 6.08229C7.04652 6.07645 6.5695 6.08401 6.2994 6.21635C6.11971 6.30433 5.9811 6.50042 6.06552 6.51169C6.16991 6.52566 6.40636 6.57543 6.53171 6.74613C6.69357 6.96632 6.68786 7.46088 6.68786 7.46088C6.68786 7.46088 6.78084 8.82335 6.47067 8.99263C6.25776 9.10871 5.9657 8.8717 5.33865 7.78817C5.01736 7.23314 4.77478 6.61964 4.77478 6.61964C4.77478 6.61964 4.72801 6.50498 4.64458 6.44366C4.54333 6.36936 4.40186 6.34569 4.40186 6.34569L2.90092 6.35553C2.90092 6.35553 2.6756 6.36181 2.59289 6.45978C2.5193 6.54691 2.58704 6.72717 2.58704 6.72717C2.58704 6.72717 3.76213 9.47635 5.09265 10.8618C6.31266 12.132 7.69809 12.0486 7.69809 12.0486Z" fill="white"/>
</g>
<defs>
<clipPath id="clip0">
<rect width="16" height="16" fill="white" transform="translate(0 0.539917)"/>
</clipPath>
</defs>
</svg>
