<svg width="17" height="17" viewBox="0 0 17 17" fill="none" xmlns="http://www.w3.org/2000/svg">
<g clip-path="url(#clip0)">
<path d="M8.5 0.877563C4.0824 0.877563 0.5 4.45996 0.5 8.87756C0.5 13.2952 4.0824 16.8776 8.5 16.8776C12.9176 16.8776 16.5 13.2952 16.5 8.87756C16.5 4.45996 12.9176 0.877563 8.5 0.877563ZM8.66956 13.5354C8.66943 13.5354 8.66968 13.5354 8.66956 13.5354H8.6676C7.86621 13.535 7.07874 13.3341 6.37939 12.9528L3.84119 13.6184L4.52051 11.1379C4.10144 10.4121 3.88098 9.58862 3.88135 8.745C3.88245 6.10583 6.0304 3.95874 8.66956 3.95874C9.95032 3.95923 11.1526 4.45776 12.0565 5.36243C12.9606 6.26721 13.4581 7.46985 13.4576 8.74878C13.4565 11.3881 11.3083 13.5354 8.66956 13.5354Z" fill="#60FC7B"/>
<path d="M8.6709 4.76721C6.47571 4.76721 4.69043 6.55176 4.68945 8.74536C4.68921 9.49707 4.89966 10.2291 5.29797 10.8625L5.39258 11.0131L4.99048 12.4812L6.49671 12.0862L6.64209 12.1724C7.25306 12.5349 7.9535 12.7267 8.66761 12.7269H8.66919C10.8627 12.7269 12.648 10.9423 12.6489 8.74854C12.6493 7.68542 12.2357 6.68591 11.4844 5.93396C10.733 5.18201 9.73377 4.76758 8.6709 4.76721ZM11.0117 10.4558C10.912 10.7351 10.4341 10.9901 10.2042 11.0245C9.99805 11.0553 9.73731 11.0681 9.45069 10.9772C9.27686 10.922 9.05408 10.8484 8.76856 10.7252C7.56849 10.2072 6.78467 8.99915 6.72486 8.91931C6.66504 8.83948 6.23633 8.27075 6.23633 7.68201C6.23633 7.09338 6.54541 6.80396 6.65503 6.68433C6.76477 6.56458 6.89441 6.53467 6.97412 6.53467C7.05384 6.53467 7.13367 6.5354 7.20337 6.53882C7.27686 6.54248 7.37549 6.51086 7.47254 6.74414C7.57227 6.98364 7.81153 7.57227 7.84143 7.63208C7.87134 7.69202 7.89124 7.76184 7.85144 7.84167C7.81153 7.92151 7.67896 8.09375 7.55237 8.25073C7.49927 8.31653 7.43006 8.37512 7.49988 8.49487C7.56958 8.6145 7.80982 9.00623 8.16541 9.32336C8.62244 9.73083 9.00794 9.85706 9.12757 9.91699C9.24708 9.97681 9.3169 9.9668 9.38672 9.88708C9.45643 9.80725 9.6858 9.53784 9.76551 9.41809C9.84522 9.29834 9.92506 9.31836 10.0347 9.35828C10.1444 9.39807 10.7326 9.6875 10.8522 9.74731C10.9718 9.80725 11.0515 9.83716 11.0814 9.88708C11.1115 9.93701 11.1115 10.1764 11.0117 10.4558Z" fill="#60FC7B"/>
</g>
<defs>
<clipPath id="clip0">
<rect width="16" height="16" fill="white" transform="translate(0.5 0.877563)"/>
</clipPath>
</defs>
</svg>
