<svg width="16" height="17" viewBox="0 0 16 17" fill="none" xmlns="http://www.w3.org/2000/svg">
<g clip-path="url(#clip0)">
<path d="M7.00391 10.0387L9.6062 8.53992L7.00391 7.04114V10.0387Z" fill="#FF0000"/>
<path d="M8 0.539917C3.5824 0.539917 0 4.12231 0 8.53992C0 12.9575 3.5824 16.5399 8 16.5399C12.4176 16.5399 16 12.9575 16 8.53992C16 4.12231 12.4176 0.539917 8 0.539917ZM12.9988 8.5481C12.9988 8.5481 12.9988 10.1705 12.793 10.9529C12.6776 11.3811 12.34 11.7188 11.9117 11.834C11.1294 12.0399 8 12.0399 8 12.0399C8 12.0399 4.87878 12.0399 4.08826 11.8258C3.66003 11.7106 3.32239 11.3728 3.20703 10.9446C3.0011 10.1705 3.0011 8.53992 3.0011 8.53992C3.0011 8.53992 3.0011 6.9176 3.20703 6.13525C3.32227 5.70703 3.66821 5.36108 4.08826 5.24585C4.87061 5.03992 8 5.03992 8 5.03992C8 5.03992 11.1294 5.03992 11.9117 5.25403C12.34 5.36926 12.6776 5.70703 12.793 6.13525C13.0071 6.9176 12.9988 8.5481 12.9988 8.5481Z" fill="#FF0000"/>
</g>
<defs>
<clipPath id="clip0">
<rect width="16" height="16" fill="white" transform="translate(0 0.539917)"/>
</clipPath>
</defs>
</svg>
